<svg width="341" height="170" viewBox="0 0 341 170" fill="none" xmlns="http://www.w3.org/2000/svg">
<path fill-rule="evenodd" clip-rule="evenodd" d="M207.262 137.254C201.493 142.272 201.954 144.724 209.023 147.748C232.264 157.69 263.145 150.471 281.651 125.129C281.651 125.129 256.418 120.76 236.155 124.576C225.553 126.571 215.548 130.046 207.262 137.254ZM177.901 66.5796C178.03 63.8988 178.556 61.1466 179.431 58.4008C180.034 56.5062 179.587 55.0258 178.633 53.6663C177.68 52.309 176.2 52.2595 174.287 53.4818C173.16 54.2022 172.355 55.1198 171.627 56.0834C169.492 58.9049 168.136 61.8741 166.978 64.8609C162.965 75.2214 160.959 85.4807 159.893 96.2964C159.702 97.4059 159.695 98.9154 159.688 100.488C159.687 100.771 159.686 101.056 159.683 101.341C159.673 102.62 159.756 103.91 160.522 104.925C161.324 105.99 162.415 105.883 163.571 104.619C164.727 103.355 165.444 101.956 166.148 100.566C169.25 94.4463 171.528 88.2569 173.655 82.0633C173.984 81.1052 174.328 80.1469 174.673 79.1885C176.185 74.9823 177.698 70.7746 177.901 66.5796ZM297.622 124.135C309.534 128.641 322.516 134.179 334.763 146.425C342.228 153.89 342.611 163.47 335.211 168.916C333.1 170.47 332.578 167.155 332.024 163.646C331.699 161.582 331.363 159.45 330.686 158.201C323.169 144.327 310.535 136.642 296.68 130.431L294.11 129.319C275.539 155.215 249.01 165.326 220.139 162.102C206.442 160.572 197.993 151.593 192.131 139.98C189.491 134.748 192.706 130.675 196.545 127.479C204.112 121.177 213.138 117.855 222.648 116.012C241.585 112.342 259.901 114.08 285.235 120.224C292.6 110.864 300.273 95.7935 301.387 71.1561C301.391 71.0761 301.395 70.9948 301.399 70.913C301.408 70.7397 301.417 70.5647 301.421 70.3976C300.833 71.8237 300.251 73.2505 299.669 74.6772C298.338 77.9374 297.008 81.1977 295.607 84.4511C293.575 89.1693 291.286 93.8472 287.987 98.3343C285.959 101.093 283.476 102.343 279.926 102.322C274.679 102.29 270.676 100.651 268.192 97.5687C267.128 99.2159 265.937 100.829 264.516 102.38C259.863 107.46 255.251 109.157 249.046 108.035C245.552 107.403 242.565 106.142 240.126 104.29C238.124 102.768 237.704 100.43 237.312 98.1264C236.187 91.5242 236.58 84.5685 237.088 77.5866C237.723 68.8896 238.986 60.1085 240.914 51.2405L241.554 48.2692C241.209 48.3382 240.864 48.407 240.519 48.4758C238.292 48.9194 236.072 49.3618 233.866 49.8704C233.667 49.9167 233.468 49.9631 233.269 50.0095C231.4 50.4447 229.53 50.8802 227.661 51.2476C226.642 51.4483 226.135 51.6901 225.954 52.682C224.853 58.7512 224.025 65.8207 223.477 71.8242C223.409 72.5688 223.339 73.3138 223.269 74.0587C222.976 77.1732 222.684 80.2876 222.538 83.378C222.537 83.3877 222.535 83.3951 222.533 83.4024C222.531 83.4105 222.528 83.4185 222.528 83.4296C222.522 83.636 222.515 83.8594 222.507 84.0927C222.461 85.2669 222.44 86.437 222.449 87.602C222.45 87.9322 222.456 88.2793 222.464 88.6419C222.466 88.7172 222.466 88.7926 222.467 88.868C222.467 88.9434 222.468 89.0187 222.47 89.0937C222.471 89.1261 222.473 89.1582 222.475 89.1902C222.477 89.2174 222.479 89.2445 222.48 89.2718C222.546 91.4372 222.723 94.159 223.135 97.6302C224.213 106.72 223.329 110.856 215.758 110.253C208.945 109.71 206.827 104.58 206.263 102.621C206.241 102.528 206.217 102.437 206.193 102.345C206.151 102.188 206.11 102.03 206.08 101.863C205.929 102.058 205.779 102.252 205.63 102.444C204.414 104.017 203.261 105.508 201.734 106.78C197.346 110.431 192.138 111.197 187.831 108.874C184.236 106.936 182.172 103.935 180.65 100.595C178.675 96.2601 177.692 91.5602 177.277 86.6632C177.273 86.6136 177.273 86.562 177.272 86.5098C177.271 86.2739 177.269 86.026 176.909 85.9004C176.499 86.9309 176.094 87.9596 175.69 88.987C174.775 91.3122 173.864 93.63 172.902 95.9434C171.22 99.9907 169.365 104.018 166.804 107.927C164.013 112.188 162.344 113.103 157.225 113.092C151.048 113.078 147.146 110.687 145.248 106.23C143.35 101.771 143.926 96.7154 144.531 91.6691C145.035 87.4769 145.682 83.2648 146.837 78.8534L147.688 75.8305C147.896 75.0497 148.126 74.3606 148.393 73.5652C148.472 73.3294 148.554 73.0842 148.639 72.8245C150.426 67.3944 152.913 62.0732 157.152 57.0934C160.988 52.5901 165.777 49.2271 171.861 47.6767C176.225 46.5647 180.21 46.552 183.013 49.0412C183.127 48.8963 183.234 48.7598 183.337 48.6291C183.538 48.3728 183.721 48.1385 183.909 47.9058C185.865 45.4746 187.899 44.6411 190.856 45.0292C193.292 45.3487 195.26 46.2649 197.008 47.4555C198.427 48.4212 199.065 49.6725 198.699 51.5417C197.45 57.9085 196.332 64.2668 195.235 70.6217C194.176 76.7672 193.146 82.917 193.103 88.9254C193.084 91.6281 193.469 94.2382 194.899 96.4488C195.156 96.8447 195.47 97.2159 195.833 97.5397C197.206 98.7613 198.682 98.5549 200.349 96.8843C202.257 94.9741 203.405 92.8186 204.535 90.6744C206.46 87.0251 207.536 83.4006 207.9 79.7046C208.646 72.1345 209.947 63.4637 211.683 55.7919C212.039 54.221 212.038 54.1581 210.179 54.5208C207.914 54.9633 206.542 54.2521 205.581 52.9619L205.481 52.8285C204.488 51.497 203.999 50.8418 203.781 49.1203C203.607 47.7467 205.308 45.3862 206.98 44.4919C207.558 44.183 208.046 44.0458 208.554 44.2975C209.706 44.8723 211.125 44.8368 212.548 44.8012C212.837 44.794 213.126 44.7867 213.413 44.7846C214.527 44.7761 214.937 44.33 215.217 43.4343C216.667 38.8066 218.455 34.1993 220.834 29.648C223.587 24.3826 226.889 19.2974 232.076 14.9688C237.887 10.1205 244.449 7.50332 251.619 7.51463C252.126 7.5153 253.161 7.59915 253.33 7.61285L253.348 7.61431C257.358 7.95011 261.381 10.8239 261.672 14.0554C261.963 17.2862 252.183 20.8619 249.854 20.7326C247.866 20.6222 248.399 18.6353 248.857 16.929C248.922 16.6891 248.985 16.4548 249.039 16.2321L249.036 16.2328C249.041 16.208 249.048 16.1834 249.055 16.1587C249.062 16.1334 249.069 16.108 249.074 16.0822C249.467 14.1911 248.042 13.236 245.795 14.0158C243.171 14.9256 241.155 16.5304 239.449 18.4583C235.39 23.0464 233.256 28.0213 231.332 33.0329C230.504 35.189 229.716 37.8969 229.005 40.3396C228.757 41.1894 228.519 42.0072 228.292 42.7584C228.028 43.6315 228.197 43.9398 229.396 43.7369C233.883 42.979 238.455 42.2551 243.013 41.5375C243.093 41.2236 243.175 40.9105 243.256 40.5973C243.26 40.5751 243.263 40.5545 243.266 40.5339C243.269 40.5112 243.272 40.4885 243.277 40.4637C245.17 31.2874 252.232 27.0867 257.764 25.2776C263.297 23.4685 263.006 27.3454 262.133 29.9951C261.379 32.2821 259.814 37.4492 259.399 38.8221C259.46 39.2053 259.932 39.1282 260.656 38.9423C261.311 38.7744 262.042 38.5909 262.817 38.3962C266.01 37.5947 269.954 36.6046 272.454 35.7377C276.46 34.2191 280.37 32.468 284.162 30.4256C290.428 27.0506 296.126 23.0648 299.771 17.243C302.772 12.4506 303.749 7.45807 301.196 2.20964C301.155 2.12493 301.107 2.03611 301.057 1.94445C300.759 1.39124 300.404 0.734123 301.137 0.247133C302.011 -0.334691 302.85 0.230166 303.536 0.716551C308.677 4.35737 311.838 9.08972 312.831 14.833C313.294 17.5131 311.829 19.8566 310.055 21.9726C305.713 27.1545 299.831 30.678 293.577 33.7222C282.258 39.2329 270.173 42.8687 257.642 45.353C257.458 45.5644 257.319 45.8167 257.229 46.1596C254.05 58.1284 252.024 69.9691 250.868 81.7095C250.405 86.4179 249.985 91.1396 251.464 95.3722C251.604 95.7737 251.783 96.1611 251.973 96.5407C253.574 99.7432 256.842 99.1727 260.342 96.2827C262.599 94.4185 264.12 92.2764 265.379 90.0707C264.94 85.9491 265.582 81.6452 266.272 77.3441C267.565 69.2933 269.423 61.21 272.546 53.0977C273.297 51.1472 274.164 49.2059 275.486 47.3501C276.098 46.4905 276.8 45.7107 278.088 45.4166C282.951 44.3074 288.626 47.1027 288.961 50.822C289.076 52.1008 288.511 53.3966 287.952 54.6768C287.818 54.9833 287.684 55.2889 287.561 55.5932C283.109 66.5489 281.046 77.3575 280.421 88.0834C280.326 89.7236 280.432 91.322 280.872 92.8299C281.215 94.0127 281.808 95.071 283.49 95.0045C285.069 94.9414 285.748 93.8326 286.375 92.8073C286.457 92.6736 286.538 92.5412 286.62 92.4128C289.667 87.6315 291.576 82.6979 293.482 77.7739L293.658 77.3179C297.402 67.6433 300.781 57.9566 303.449 48.2515C303.857 46.7686 303.966 45.3244 304.076 43.8804C304.143 42.9935 304.21 42.1067 304.347 41.2109C304.606 39.5036 305.038 37.8458 307.298 36.6878C309.493 35.5624 311.07 36.1512 312.47 36.9911C316.502 39.411 318.852 42.5704 318.046 47.6315C317.983 48.0271 317.92 48.4227 317.857 48.8184C317.351 51.9909 316.845 55.1659 316.402 58.332C316.122 60.0213 315.839 62.1561 315.509 64.6464C313.704 78.2731 310.489 102.547 298.442 122.765C297.825 123.891 297.622 124.135 297.622 124.135ZM123.536 118.659C125.056 118.903 126.978 118.861 128.592 118.329C133.166 116.82 135.233 115.28 134.922 111.509C134.615 107.787 134.555 103.999 134.501 100.216C134.423 94.823 134.633 89.3569 135.581 83.8447L135.58 83.8476C136.715 75.8187 139.928 67.2044 143.513 60.7443C143.542 60.6858 143.57 60.6273 143.599 60.5687L143.599 60.5685C143.638 60.4883 143.677 60.4082 143.718 60.3286C144.588 58.6517 145.676 57.0186 146.892 55.4421C147.266 54.9437 147.638 54.4849 148.007 54.0537C149.724 51.9929 151.623 50.041 153.495 48.2347C157.248 44.6165 161.621 41.1835 167.049 39.7534C171.608 38.5516 177.569 38.6534 182.296 38.8973C193.033 39.4501 193.172 26.0059 182.296 26.0618C168.441 26.1332 156.781 33.014 148.582 42.3161C144.992 46.3881 142.227 50.9339 139.809 55.6401L139.637 55.9735C139.126 56.9657 138.393 58.3899 137.874 59.4428C137.751 59.2399 137.632 59.0363 137.513 58.8334C137.04 58.0282 136.574 57.2353 135.955 56.552C135.049 55.5524 133.964 54.6348 132.726 53.92C128.259 51.3404 122.612 51.9215 117.618 55.3608C114.022 57.8373 113.538 59.0476 115.475 61.6647C117.854 64.8821 119.26 68.4946 118.734 72.7547C118.52 74.4804 118.31 76.2059 118.1 77.9316C116.964 87.2549 115.827 96.5818 114.211 105.951C112.691 114.763 113.886 117.106 123.536 118.659ZM92.8354 126.16C101.561 114.031 106.743 101.194 108.834 87.8386C110.788 75.3538 109.31 63.8891 102.859 54.324C91.3479 37.2581 73.194 30.788 49.4269 34.122C29.4837 36.9195 12.8116 49.3774 4.52681 67.2938C-0.116465 77.3354 -1.44837 87.1578 1.75555 96.274C6.46316 109.667 21.4768 111.599 32.9563 109.611C34.718 109.305 36.151 108.215 37.2284 106.733C37.7191 106.059 38.2316 105.26 37.4822 104.751C36.8778 104.34 36.2132 104.807 35.5395 105.281C32.8191 107.194 30.7449 107.389 28.383 105.985C26.043 104.593 24.5464 102.499 23.4442 100.115C20.5704 93.9057 20.5422 86.899 21.534 79.645C22.7097 71.047 25.6895 62.7565 31.7184 55.0288C39.8767 44.5722 53.2629 38.262 64.2991 39.7996C76.2417 41.4638 84.6849 47.5174 89.2214 57.2501C98.0442 76.1759 94.7272 96.0923 79.2965 116.339C75.2407 121.659 70.2163 126.264 64.1563 129.573C60.3409 131.656 59.3151 131.207 58.9468 127.636C58.2978 121.333 59.0765 114.793 59.8522 108.278C59.9038 107.845 59.9554 107.412 60.0065 106.979C61.32 95.8625 63.1701 84.7301 69.6635 73.9335C70.9799 71.7433 70.0219 70.5253 68.4306 69.6465C65.3716 67.9555 61.7166 67.8417 57.8786 68.1958C55.4049 68.4249 53.5768 69.6076 52.1593 71.696C50.4287 74.2446 49.3039 76.9373 48.4308 79.6775C44.3941 92.3596 43.1782 104.902 42.1517 117.432C41.8173 121.058 41.9028 124.608 42.0407 128.143C42.0986 129.649 42.3645 131.116 42.6402 132.565C43.7367 138.322 46.4945 140.506 52.9186 140.415C54.5566 140.391 55.774 140.775 57.0479 141.458C63.2755 144.799 70.0036 145.995 77.8925 140.981C84.0522 137.067 88.7463 131.844 92.8354 126.16Z" fill="#08AEEF"/>
</svg>
